<svg version="1" xmlns="http://www.w3.org/2000/svg" width="682.667" height="682.667" viewBox="0 0 512.000000 512.000000"><path d="M231.2 8.2c-8.6.8-29 4.3-29.8 5.1-.2.2 2.7 11.4 6.4 25l6.7 24.7h83.1l6.7-24.7c3.6-13.6 6.5-24.9 6.3-25-.9-.9-21.5-4.3-31.6-5.2-13.3-1.3-34.4-1.2-47.8.1zM113 52.1C88.4 69.7 69.7 88.4 52.1 113c-3.3 4.7-6.1 9-6.1 9.5 0 .6 10 6.8 22.2 13.8l22.2 12.8 29.3-29.3 29.4-29.4-12.7-22.2C129.4 56 123.2 46 122.6 46c-.6 0-4.9 2.8-9.6 6.1zM375.6 68.2l-12.7 22.2 29.4 29.4 29.3 29.3 21.9-12.5c12.1-6.9 22.1-13 22.3-13.5.4-1.3-6.1-10.9-15.9-23.2-9.1-11.4-25.1-27.7-35.4-36-9.7-7.8-23.8-17.9-25.1-17.9-.6 0-6.8 10-13.8 22.2zM223.3 202.2c-35.1 35.2-36.3 36.7-38.6 50.3-4.5 26.2 19.6 51.1 46.6 48l5.9-.7-.7 4.3c-1.5 8.8-5.6 21.2-10 29.9l-4.5 9h68l-4.5-9c-4.4-8.7-8.5-21.1-10-29.8l-.7-4.3 6.9.6c21.9 2.2 41.7-13.5 45.6-36 1.3-7.7 0-15.9-3.8-24.3-2.2-4.8-7.5-10.6-34.8-38C271 184.5 256.3 170 256 170c-.3 0-15 14.5-32.7 32.2zM12.1 205.7C7.8 223.9 6 255.3 7.9 277c1.1 11.9 4.4 32.6 5.4 33.6.2.2 11.5-2.6 25-6.3l24.7-6.7v-83.2l-23.2-6.3c-12.8-3.5-24-6.6-24.9-6.8-1.3-.4-1.9.7-2.8 4.4zM472.8 207.9l-23.8 6.6v83l23.8 6.4c13 3.6 24.2 6.6 24.9 6.8 1.2.5 2.5-4.6 5.1-20.7 2.3-14.4 2.3-54.3-.1-68.5-2.5-15.3-3.8-20.5-5-20.4-.7.1-11.9 3.1-24.9 6.8zM67.8 375.8c-12 6.9-21.8 13-21.8 13.5 0 3.1 20.4 28.9 32.6 41.3 13.8 14 41.7 36.1 44.4 35.2.6-.2 6.7-10.2 13.6-22.3l12.5-21.9-29.3-29.3C103.7 376.2 90.3 363 90 363.1c-.3 0-10.3 5.7-22.2 12.7zM392.2 392.3l-29.3 29.3 12.5 21.9c6.9 12.1 13 22.1 13.5 22.3 2.7.9 29.2-19.9 43-33.7 12.7-12.7 34.1-39.6 34.1-42.9 0-.7-39.4-24-43.9-26-.3-.1-13.8 13-29.9 29.1zM208.1 472.7c-3.6 13.1-6.6 24.3-6.8 25-.5 1.2 4.6 2.5 20.7 5.1 14.7 2.3 53.3 2.3 68 0 18-2.9 21.1-3.8 20.6-5.6-.3-1-3.3-12.2-6.7-25l-6.2-23.2h-83.2l-6.4 23.7z"/></svg>